<svg width="1170" height="45" xmlns="http://www.w3.org/2000/svg">

 <g>
  <title>background</title>
  <rect fill="none" id="canvas_background" height="402" width="582" y="-1" x="-1"/>
 </g>
 <g>
  <title>Layer 1</title>
  <g id="svg_14">
   <path id="svg_10" fill="#32495E" d="m0.04087,16.7913c0.42368,5.7773 4.43681,10.406 12.03943,13.8859c9.1185,-10.1579 22.8936,-20.3835 41.3252,-30.6772c-12.6873,5.25532 -24.9574,11.9174 -36.8106,19.9867c-4.1696,-3.5137 -5.906,-6.3412 -5.2092,-8.4828c0.9708,-2.87142 3.3243,-3.72363 7.0612,-2.55646c-2.4051,-0.35134 -3.6735,0.06997 -3.8057,1.26386c-0.1123,0.7778 0.3474,1.2456 0.8506,1.5819c0.8607,0.5753 1.9768,0.6506 3.7938,0.4659c1.6795,-0.1584 3.0782,0.3838 4.1962,1.6267c0.5935,0.318 0.8924,0.0081 0.8971,-0.9296c0.9979,0.0376 1.6345,-0.0302 1.9101,-0.2032c-4.5545,-2.8284 -7.7573,-5.09447 -9.6079,-6.79798c-1.4762,-1.06514 0.7258,-1.93358 0.8189,-2.2157c-6.8937,-0.8993 -11.2144,1.09384 -12.82877,3.46492c-3.40537,2.83966 -4.9489,6.03536 -4.63036,9.58706z" clip-rule="evenodd" fill-rule="evenodd"/>
   <path id="svg_11" fill="#F9F9F9" d="m51.2582,13.0037c-10.3147,2.1518 -24.7069,11.0315 -43.17666,26.639c17.65406,-19.4894 32.31546,-30.18079 43.98666,-32.07176c9.1747,-1.14257 15.1169,1.76237 17.8266,8.71526c0.9406,5.7047 -4.4226,11.8247 -16.0901,18.36c-7.307,4.3036 -13.2491,7.7122 -17.8266,10.2256c-6.2655,-2.6344 -12.0533,-5.8106 -17.3636,-9.5286c13.6489,-10.5786 22.9096,-15.8852 27.7818,-15.9196c3.1243,-0.5028 4.851,0.5623 5.1802,3.1953c-0.0984,1.5539 -0.9858,2.7739 -2.6623,3.6606c0.2265,-2.1536 -0.6225,-3.548 -2.5468,-4.1834c-3.0554,-0.5423 -5.0232,0.271 -5.9035,2.4401c-1.6298,4.3267 -3.0188,6.8542 -4.1674,7.5823c-2.0963,1.0321 -2.9741,1.9618 -2.6333,2.7889c0.4302,1.0951 0.8258,1.7342 1.1865,1.9173c0.571,-0.8125 1.1014,-1.316 1.5916,-1.5106c0.4352,0.3884 -0.0374,1.2695 -1.418,2.6437c0.5901,0.5404 1.352,0.5015 2.2861,-0.1163c9.3716,-6.0747 15.4682,-9.9093 18.2899,-11.5041c0.8685,-0.4065 1.8718,0.068 3.0096,1.4235c0.2429,-1.6218 0.4166,-3.5971 0.5207,-5.9259c2.2899,-4.1369 2.4827,-6.9257 0.5787,-8.3665c-2.5876,-1.2488 -5.4044,-1.4038 -8.4501,-0.4648z" clip-rule="evenodd" fill-rule="evenodd"/>
   <path id="svg_12" fill="#F9F9F9" d="m96.45,31l4.8,0l0,-16.35l5.85,0l0,-4.65l-16.5,0l0,4.65l5.85,0l0,16.35zm22.045,0.3c5.4,0 8.85,-3.45 8.85,-9l0,-12.3l-4.8,0l0,12.3c0,2.55 -1.8,4.35 -4.05,4.35c-2.25,0 -4.05,-1.8 -4.05,-4.35l0,-12.3l-4.8,0l0,12.3c0,5.55 3.45,9 8.85,9zm12.892,-0.3l14.25,0l0,-4.65l-9.45,0l0,-16.35l-4.8,0l0,21zm16.787,0l4.8,0l0,-6.3l4.95,0c4.05,0 6.9,-2.85 6.9,-7.35c0,-4.5 -2.85,-7.35 -6.9,-7.35l-9.75,0l0,21zm4.8,-10.95l0,-5.4l4.65,0c1.35,0 2.4,1.05 2.4,2.7c0,1.65 -1.05,2.7 -2.4,2.7l-4.65,0zm10.968,10.95l5.25,0l1.35,-4.2l8.1,0l1.35,4.2l5.25,0l-7.2,-21l-6.9,0l-7.2,21zm7.95,-8.4l2.4,-7.5l0.6,0l2.4,7.5l-5.4,0zm15.306,8.4l4.8,0l0,-6.75l0.6,0l6,6.75l6,0l-6.45,-7.05c0,0 5.85,-0.3 5.85,-6.75c0,-4.35 -2.85,-7.2 -6.9,-7.2l-9.9,0l0,21zm4.8,-11.1l0,-5.4l4.8,0c1.35,0 2.4,1.05 2.4,2.7c0,1.65 -1.05,2.7 -2.4,2.7l-4.8,0z"/>
  </g>
 </g>
</svg>